<svg width="400" height="400" viewPort="0 0 400 400" version="1.1" xmlns="http://www.w3.org/2000/svg">
	<defs>
		<filter id="glow_filter"	x="0" y="0" width="15" height="15">
			<feGaussianBlur in="SourceGraphic" stdDeviation="5" />
		</filter>
	</defs>
	<rect x="215" y="105" width="15" height="45" fill="black" />
	<rect x="0" y="25" width="15" height="25" fill="silver" />
	<rect x="11" y="12" width="205" height="205" fill="grey" rx="3" ry="3" />
	<rect x="10" y="10" width="205" height="205" fill="black" rx="3" ry="3" />
	<g rows="8" cols="8">
		<!-- row: 1 -->
		<g class="io_com1" x="1" y="1">
			<circle cx="25" cy="25" r="10" fill="#9AFEFF" class="crledbase"/>
			<circle cx="25" cy="25" r="10" fill="#9AFEFF" filter="url(#glow_filter)" visibility="hidden" fill-opacity="0.6" class="pin13 pin9" />
			<ellipse cx="25" cy="30" rx="3" ry="1" fill="white" fill-opacity="0.4" />
		</g>
		<g class="io_com1" x="1" y="2">
			<circle cx="50" cy="25" r="10" fill="#9AFEFF" class="crledbase"/>
			<circle cx="50" cy="25" r="10" fill="#9AFEFF" filter="url(#glow_filter)" visibility="hidden" fill-opacity="0.6" class="pin13 pin3" />
			<ellipse cx="50" cy="30" rx="3" ry="1" fill="white" fill-opacity="0.4" />
		</g>
		<g class="io_com1" x="1" y="3">
			<circle cx="75" cy="25" r="10" fill="#9AFEFF" class="crledbase"/>
			<circle cx="75" cy="25" r="10" fill="#9AFEFF" filter="url(#glow_filter)" visibility="hidden" fill-opacity="0.6" class="pin13 pin2" />
			<ellipse cx="75" cy="30" rx="3" ry="1" fill="white" fill-opacity="0.4" />
		</g>
		<g class="io_com1" x="1" y="4">
			<circle cx="100" cy="25" r="10" fill="#9AFEFF" class="crledbase"/>
			<circle cx="100" cy="25" r="10" fill="#9AFEFF" filter="url(#glow_filter)" visibility="hidden" fill-opacity="0.6" class="pin13 pin12" />
			<ellipse cx="100" cy="30" rx="3" ry="1" fill="white" fill-opacity="0.4" />
		</g>
		<g class="io_com1" x="1" y="5">
			<circle cx="125" cy="25" r="10" fill="#9AFEFF" class="crledbase"/>
			<circle cx="125" cy="25" r="10" fill="#9AFEFF" filter="url(#glow_filter)" visibility="hidden" fill-opacity="0.6" class="pin13 pin15" />
			<ellipse cx="125" cy="30" rx="3" ry="1" fill="white" fill-opacity="0.4" />
		</g>
		<g class="io_com1" x="1" y="6">
			<circle cx="150" cy="25" r="10" fill="#9AFEFF" class="crledbase"/>
			<circle cx="150" cy="25" r="10" fill="#9AFEFF" filter="url(#glow_filter)" visibility="hidden" fill-opacity="0.6" class="pin13 pin11" />
			<ellipse cx="150" cy="30" rx="3" ry="1" fill="white" fill-opacity="0.4" />
		</g>
		<g class="io_com1" x="1" y="7">
			<circle cx="175" cy="25" r="10" fill="#9AFEFF" class="crledbase"/>
			<circle cx="175" cy="25" r="10" fill="#9AFEFF" filter="url(#glow_filter)" visibility="hidden" fill-opacity="0.6" class="pin13 pin7" />
			<ellipse cx="175" cy="30" rx="3" ry="1" fill="white" fill-opacity="0.4" />
		</g>
		<g class="io_com1" x="1" y="8">
			<circle cx="200" cy="25" r="10" fill="#9AFEFF" class="crledbase"/>
			<circle cx="200" cy="25" r="10" fill="#9AFEFF" filter="url(#glow_filter)" visibility="hidden" fill-opacity="0.6" class="pin13 pin6" />
			<ellipse cx="200" cy="30" rx="3" ry="1" fill="white" fill-opacity="0.4" />
		</g>
		<!-- row: 2 -->
		<g class="io_com1" x="2" y="1">
			<circle cx="25" cy="50" r="10" fill="#9AFEFF" class="crledbase"/>
			<circle cx="25" cy="50" r="10" fill="#9AFEFF" filter="url(#glow_filter)" visibility="hidden" fill-opacity="0.6" class="pin8 pin9" />
			<ellipse cx="25" cy="55" rx="3" ry="1" fill="white" fill-opacity="0.4" />
		</g>
		<g class="io_com1" x="2" y="2">
			<circle cx="50" cy="50" r="10" fill="#9AFEFF" class="crledbase"/>
			<circle cx="50" cy="50" r="10" fill="#9AFEFF" filter="url(#glow_filter)" visibility="hidden" fill-opacity="0.6" class="pin8 pin3" />
			<ellipse cx="50" cy="55" rx="3" ry="1" fill="white" fill-opacity="0.4" />
		</g>
		<g class="io_com1" x="2" y="3">
			<circle cx="75" cy="50" r="10" fill="#9AFEFF" class="crledbase"/>
			<circle cx="75" cy="50" r="10" fill="#9AFEFF" filter="url(#glow_filter)" visibility="hidden" fill-opacity="0.6" class="pin8 pin2" />
			<ellipse cx="75" cy="55" rx="3" ry="1" fill="white" fill-opacity="0.4" />
		</g>
		<g class="io_com1" x="2" y="4">
			<circle cx="100" cy="50" r="10" fill="#9AFEFF" class="crledbase"/>
			<circle cx="100" cy="50" r="10" fill="#9AFEFF" filter="url(#glow_filter)" visibility="hidden" fill-opacity="0.6" class="pin8 pin12" />
			<ellipse cx="100" cy="55" rx="3" ry="1" fill="white" fill-opacity="0.4" />
		</g>
		<g class="io_com1" x="2" y="5">
			<circle cx="125" cy="50" r="10" fill="#9AFEFF" class="crledbase"/>
			<circle cx="125" cy="50" r="10" fill="#9AFEFF" filter="url(#glow_filter)" visibility="hidden" fill-opacity="0.6" class="pin8 pin15" />
			<ellipse cx="125" cy="55" rx="3" ry="1" fill="white" fill-opacity="0.4" />
		</g>
		<g class="io_com1" x="2" y="6">
			<circle cx="150" cy="50" r="10" fill="#9AFEFF" class="crledbase"/>
			<circle cx="150" cy="50" r="10" fill="#9AFEFF" filter="url(#glow_filter)" visibility="hidden" fill-opacity="0.6" class="pin8 pin11" />
			<ellipse cx="150" cy="55" rx="3" ry="1" fill="white" fill-opacity="0.4" />
		</g>
		<g class="io_com1" x="2" y="7">
			<circle cx="175" cy="50" r="10" fill="#9AFEFF" class="crledbase"/>
			<circle cx="175" cy="50" r="10" fill="#9AFEFF" filter="url(#glow_filter)" visibility="hidden" fill-opacity="0.6" class="pin8 pin7" />
			<ellipse cx="175" cy="55" rx="3" ry="1" fill="white" fill-opacity="0.4" />
		</g>
		<g class="io_com1" x="2" y="8">
			<circle cx="200" cy="50" r="10" fill="#9AFEFF" class="crledbase"/>
			<circle cx="200" cy="50" r="10" fill="#9AFEFF" filter="url(#glow_filter)" visibility="hidden" fill-opacity="0.6" class="pin8 pin6" />
			<ellipse cx="200" cy="55" rx="3" ry="1" fill="white" fill-opacity="0.4" />
		</g>
		<!-- row: 3 -->
		<g class="io_com1" x="3" y="1">
			<circle cx="25" cy="75" r="10" fill="#9AFEFF" class="crledbase"/>
			<circle cx="25" cy="75" r="10" fill="#9AFEFF" filter="url(#glow_filter)" visibility="hidden" fill-opacity="0.6" class="pin17 pin9" />
			<ellipse cx="25" cy="80" rx="3" ry="1" fill="white" fill-opacity="0.4" />
		</g>
		<g class="io_com1" x="3" y="2">
			<circle cx="50" cy="75" r="10" fill="#9AFEFF" class="crledbase"/>
			<circle cx="50" cy="75" r="10" fill="#9AFEFF" filter="url(#glow_filter)" visibility="hidden" fill-opacity="0.6" class="pin17 pin3" />
			<ellipse cx="50" cy="80" rx="3" ry="1" fill="white" fill-opacity="0.4" />
		</g>
		<g class="io_com1" x="3" y="3">
			<circle cx="75" cy="75" r="10" fill="#9AFEFF" class="crledbase"/>
			<circle cx="75" cy="75" r="10" fill="#9AFEFF" filter="url(#glow_filter)" visibility="hidden" fill-opacity="0.6" class="pin17 pin2" />
			<ellipse cx="75" cy="80" rx="3" ry="1" fill="white" fill-opacity="0.4" />
		</g>
		<g class="io_com1" x="3" y="4">
			<circle cx="100" cy="75" r="10" fill="#9AFEFF" class="crledbase"/>
			<circle cx="100" cy="75" r="10" fill="#9AFEFF" filter="url(#glow_filter)" visibility="hidden" fill-opacity="0.6" class="pin17 pin12" />
			<ellipse cx="100" cy="80" rx="3" ry="1" fill="white" fill-opacity="0.4" />
		</g>
		<g class="io_com1" x="3" y="5">
			<circle cx="125" cy="75" r="10" fill="#9AFEFF" class="crledbase"/>
			<circle cx="125" cy="75" r="10" fill="#9AFEFF" filter="url(#glow_filter)" visibility="hidden" fill-opacity="0.6" class="pin17 pin15" />
			<ellipse cx="125" cy="80" rx="3" ry="1" fill="white" fill-opacity="0.4" />
		</g>
		<g class="io_com1" x="3" y="6">
			<circle cx="150" cy="75" r="10" fill="#9AFEFF" class="crledbase"/>
			<circle cx="150" cy="75" r="10" fill="#9AFEFF" filter="url(#glow_filter)" visibility="hidden" fill-opacity="0.6" class="pin17 pin11" />
			<ellipse cx="150" cy="80" rx="3" ry="1" fill="white" fill-opacity="0.4" />
		</g>
		<g class="io_com1" x="3" y="7">
			<circle cx="175" cy="75" r="10" fill="#9AFEFF" class="crledbase"/>
			<circle cx="175" cy="75" r="10" fill="#9AFEFF" filter="url(#glow_filter)" visibility="hidden" fill-opacity="0.6" class="pin17 pin7" />
			<ellipse cx="175" cy="80" rx="3" ry="1" fill="white" fill-opacity="0.4" />
		</g>
		<g class="io_com1" x="3" y="8">
			<circle cx="200" cy="75" r="10" fill="#9AFEFF" class="crledbase"/>
			<circle cx="200" cy="75" r="10" fill="#9AFEFF" filter="url(#glow_filter)" visibility="hidden" fill-opacity="0.6" class="pin17 pin6" />
			<ellipse cx="200" cy="80" rx="3" ry="1" fill="white" fill-opacity="0.4" />
		</g>
		<!-- row: 4 -->
		<g class="io_com1" x="4" y="1">
			<circle cx="25" cy="100" r="10" fill="#9AFEFF" class="crledbase"/>
			<circle cx="25" cy="100" r="10" fill="#9AFEFF" filter="url(#glow_filter)" visibility="hidden" fill-opacity="0.6" class="pin10 pin9" />
			<ellipse cx="25" cy="105" rx="3" ry="1" fill="white" fill-opacity="0.4" />
		</g>
		<g class="io_com1" x="4" y="2">
			<circle cx="50" cy="100" r="10" fill="#9AFEFF" class="crledbase"/>
			<circle cx="50" cy="100" r="10" fill="#9AFEFF" filter="url(#glow_filter)" visibility="hidden" fill-opacity="0.6" class="pin10 pin3" />
			<ellipse cx="50" cy="105" rx="3" ry="1" fill="white" fill-opacity="0.4" />
		</g>
		<g class="io_com1" x="4" y="3">
			<circle cx="75" cy="100" r="10" fill="#9AFEFF" class="crledbase"/>
			<circle cx="75" cy="100" r="10" fill="#9AFEFF" filter="url(#glow_filter)" visibility="hidden" fill-opacity="0.6" class="pin10 pin2" />
			<ellipse cx="75" cy="105" rx="3" ry="1" fill="white" fill-opacity="0.4" />
		</g>
		<g class="io_com1" x="4" y="4">
			<circle cx="100" cy="100" r="10" fill="#9AFEFF" class="crledbase"/>
			<circle cx="100" cy="100" r="10" fill="#9AFEFF" filter="url(#glow_filter)" visibility="hidden" fill-opacity="0.6" class="pin10 pin12" />
			<ellipse cx="100" cy="105" rx="3" ry="1" fill="white" fill-opacity="0.4" />
		</g>
		<g class="io_com1" x="4" y="5">
			<circle cx="125" cy="100" r="10" fill="#9AFEFF" class="crledbase"/>
			<circle cx="125" cy="100" r="10" fill="#9AFEFF" filter="url(#glow_filter)" visibility="hidden" fill-opacity="0.6" class="pin10 pin15" />
			<ellipse cx="125" cy="105" rx="3" ry="1" fill="white" fill-opacity="0.4" />
		</g>
		<g class="io_com1" x="4" y="6">
			<circle cx="150" cy="100" r="10" fill="#9AFEFF" class="crledbase"/>
			<circle cx="150" cy="100" r="10" fill="#9AFEFF" filter="url(#glow_filter)" visibility="hidden" fill-opacity="0.6" class="pin10 pin11" />
			<ellipse cx="150" cy="105" rx="3" ry="1" fill="white" fill-opacity="0.4" />
		</g>
		<g class="io_com1" x="4" y="7">
			<circle cx="175" cy="100" r="10" fill="#9AFEFF" class="crledbase"/>
			<circle cx="175" cy="100" r="10" fill="#9AFEFF" filter="url(#glow_filter)" visibility="hidden" fill-opacity="0.6" class="pin10 pin7" />
			<ellipse cx="175" cy="105" rx="3" ry="1" fill="white" fill-opacity="0.4" />
		</g>
		<g class="io_com1" x="4" y="8">
			<circle cx="200" cy="100" r="10" fill="#9AFEFF" class="crledbase"/>
			<circle cx="200" cy="100" r="10" fill="#9AFEFF" filter="url(#glow_filter)" visibility="hidden" fill-opacity="0.6" class="pin10 pin6" />
			<ellipse cx="200" cy="105" rx="3" ry="1" fill="white" fill-opacity="0.4" />
		</g>
		<!-- row: 5 -->
		<g class="io_com1" x="5" y="1">
			<circle cx="25" cy="125" r="10" fill="#9AFEFF" class="crledbase"/>
			<circle cx="25" cy="125" r="10" fill="#9AFEFF" filter="url(#glow_filter)" visibility="hidden" fill-opacity="0.6" class="pin5 pin9" />
			<ellipse cx="25" cy="130" rx="3" ry="1" fill="white" fill-opacity="0.4" />
		</g>
		<g class="io_com1" x="5" y="2">
			<circle cx="50" cy="125" r="10" fill="#9AFEFF" class="crledbase"/>
			<circle cx="50" cy="125" r="10" fill="#9AFEFF" filter="url(#glow_filter)" visibility="hidden" fill-opacity="0.6" class="pin5 pin3" />
			<ellipse cx="50" cy="130" rx="3" ry="1" fill="white" fill-opacity="0.4" />
		</g>
		<g class="io_com1" x="5" y="3">
			<circle cx="75" cy="125" r="10" fill="#9AFEFF" class="crledbase"/>
			<circle cx="75" cy="125" r="10" fill="#9AFEFF" filter="url(#glow_filter)" visibility="hidden" fill-opacity="0.6" class="pin5 pin2" />
			<ellipse cx="75" cy="130" rx="3" ry="1" fill="white" fill-opacity="0.4" />
		</g>
		<g class="io_com1" x="5" y="4">
			<circle cx="100" cy="125" r="10" fill="#9AFEFF" class="crledbase"/>
			<circle cx="100" cy="125" r="10" fill="#9AFEFF" filter="url(#glow_filter)" visibility="hidden" fill-opacity="0.6" class="pin5 pin12" />
			<ellipse cx="100" cy="130" rx="3" ry="1" fill="white" fill-opacity="0.4" />
		</g>
		<g class="io_com1" x="5" y="5">
			<circle cx="125" cy="125" r="10" fill="#9AFEFF" class="crledbase"/>
			<circle cx="125" cy="125" r="10" fill="#9AFEFF" filter="url(#glow_filter)" visibility="hidden" fill-opacity="0.6" class="pin5 pin15" />
			<ellipse cx="125" cy="130" rx="3" ry="1" fill="white" fill-opacity="0.4" />
		</g>
		<g class="io_com1" x="5" y="6">
			<circle cx="150" cy="125" r="10" fill="#9AFEFF" class="crledbase"/>
			<circle cx="150" cy="125" r="10" fill="#9AFEFF" filter="url(#glow_filter)" visibility="hidden" fill-opacity="0.6" class="pin5 pin11" />
			<ellipse cx="150" cy="130" rx="3" ry="1" fill="white" fill-opacity="0.4" />
		</g>
		<g class="io_com1" x="5" y="7">
			<circle cx="175" cy="125" r="10" fill="#9AFEFF" class="crledbase"/>
			<circle cx="175" cy="125" r="10" fill="#9AFEFF" filter="url(#glow_filter)" visibility="hidden" fill-opacity="0.6" class="pin5 pin7" />
			<ellipse cx="175" cy="130" rx="3" ry="1" fill="white" fill-opacity="0.4" />
		</g>
		<g class="io_com1" x="5" y="8">
			<circle cx="200" cy="125" r="10" fill="#9AFEFF" class="crledbase"/>
			<circle cx="200" cy="125" r="10" fill="#9AFEFF" filter="url(#glow_filter)" visibility="hidden" fill-opacity="0.6" class="pin5 pin6" />
			<ellipse cx="200" cy="130" rx="3" ry="1" fill="white" fill-opacity="0.4" />
		</g>
		<!-- row: 6 -->
		<g class="io_com1" x="6" y="1">
			<circle cx="25" cy="150" r="10" fill="#9AFEFF" class="crledbase"/>
			<circle cx="25" cy="150" r="10" fill="#9AFEFF" filter="url(#glow_filter)" visibility="hidden" fill-opacity="0.6" class="pin16 pin9" />
			<ellipse cx="25" cy="155" rx="3" ry="1" fill="white" fill-opacity="0.4" />
		</g>
		<g class="io_com1" x="6" y="2">
			<circle cx="50" cy="150" r="10" fill="#9AFEFF" class="crledbase"/>
			<circle cx="50" cy="150" r="10" fill="#9AFEFF" filter="url(#glow_filter)" visibility="hidden" fill-opacity="0.6" class="pin16 pin3" />
			<ellipse cx="50" cy="155" rx="3" ry="1" fill="white" fill-opacity="0.4" />
		</g>
		<g class="io_com1" x="6" y="3">
			<circle cx="75" cy="150" r="10" fill="#9AFEFF" class="crledbase"/>
			<circle cx="75" cy="150" r="10" fill="#9AFEFF" filter="url(#glow_filter)" visibility="hidden" fill-opacity="0.6" class="pin16 pin2" />
			<ellipse cx="75" cy="155" rx="3" ry="1" fill="white" fill-opacity="0.4" />
		</g>
		<g class="io_com1" x="6" y="4">
			<circle cx="100" cy="150" r="10" fill="#9AFEFF" class="crledbase"/>
			<circle cx="100" cy="150" r="10" fill="#9AFEFF" filter="url(#glow_filter)" visibility="hidden" fill-opacity="0.6" class="pin16 pin12" />
			<ellipse cx="100" cy="155" rx="3" ry="1" fill="white" fill-opacity="0.4" />
		</g>
		<g class="io_com1" x="6" y="5">
			<circle cx="125" cy="150" r="10" fill="#9AFEFF" class="crledbase"/>
			<circle cx="125" cy="150" r="10" fill="#9AFEFF" filter="url(#glow_filter)" visibility="hidden" fill-opacity="0.6" class="pin16 pin15" />
			<ellipse cx="125" cy="155" rx="3" ry="1" fill="white" fill-opacity="0.4" />
		</g>
		<g class="io_com1" x="6" y="6">
			<circle cx="150" cy="150" r="10" fill="#9AFEFF" class="crledbase"/>
			<circle cx="150" cy="150" r="10" fill="#9AFEFF" filter="url(#glow_filter)" visibility="hidden" fill-opacity="0.6" class="pin16 pin11" />
			<ellipse cx="150" cy="155" rx="3" ry="1" fill="white" fill-opacity="0.4" />
		</g>
		<g class="io_com1" x="6" y="7">
			<circle cx="175" cy="150" r="10" fill="#9AFEFF" class="crledbase"/>
			<circle cx="175" cy="150" r="10" fill="#9AFEFF" filter="url(#glow_filter)" visibility="hidden" fill-opacity="0.6" class="pin16 pin7" />
			<ellipse cx="175" cy="155" rx="3" ry="1" fill="white" fill-opacity="0.4" />
		</g>
		<g class="io_com1" x="6" y="8">
			<circle cx="200" cy="150" r="10" fill="#9AFEFF" class="crledbase"/>
			<circle cx="200" cy="150" r="10" fill="#9AFEFF" filter="url(#glow_filter)" visibility="hidden" fill-opacity="0.6" class="pin16 pin6" />
			<ellipse cx="200" cy="155" rx="3" ry="1" fill="white" fill-opacity="0.4" />
		</g>
		<!-- row: 7 -->
		<g class="io_com1" x="7" y="1">
			<circle cx="25" cy="175" r="10" fill="#9AFEFF" class="crledbase"/>
			<circle cx="25" cy="175" r="10" fill="#9AFEFF" filter="url(#glow_filter)" visibility="hidden" fill-opacity="0.6" class="pin4 pin9" />
			<ellipse cx="25" cy="180" rx="3" ry="1" fill="white" fill-opacity="0.4" />
		</g>
		<g class="io_com1" x="7" y="2">
			<circle cx="50" cy="175" r="10" fill="#9AFEFF" class="crledbase"/>
			<circle cx="50" cy="175" r="10" fill="#9AFEFF" filter="url(#glow_filter)" visibility="hidden" fill-opacity="0.6" class="pin4 pin3" />
			<ellipse cx="50" cy="180" rx="3" ry="1" fill="white" fill-opacity="0.4" />
		</g>
		<g class="io_com1" x="7" y="3">
			<circle cx="75" cy="175" r="10" fill="#9AFEFF" class="crledbase"/>
			<circle cx="75" cy="175" r="10" fill="#9AFEFF" filter="url(#glow_filter)" visibility="hidden" fill-opacity="0.6" class="pin4 pin2" />
			<ellipse cx="75" cy="180" rx="3" ry="1" fill="white" fill-opacity="0.4" />
		</g>
		<g class="io_com1" x="7" y="4">
			<circle cx="100" cy="175" r="10" fill="#9AFEFF" class="crledbase"/>
			<circle cx="100" cy="175" r="10" fill="#9AFEFF" filter="url(#glow_filter)" visibility="hidden" fill-opacity="0.6" class="pin4 pin12" />
			<ellipse cx="100" cy="180" rx="3" ry="1" fill="white" fill-opacity="0.4" />
		</g>
		<g class="io_com1" x="7" y="5">
			<circle cx="125" cy="175" r="10" fill="#9AFEFF" class="crledbase"/>
			<circle cx="125" cy="175" r="10" fill="#9AFEFF" filter="url(#glow_filter)" visibility="hidden" fill-opacity="0.6" class="pin4 pin15" />
			<ellipse cx="125" cy="180" rx="3" ry="1" fill="white" fill-opacity="0.4" />
		</g>
		<g class="io_com1" x="7" y="6">
			<circle cx="150" cy="175" r="10" fill="#9AFEFF" class="crledbase"/>
			<circle cx="150" cy="175" r="10" fill="#9AFEFF" filter="url(#glow_filter)" visibility="hidden" fill-opacity="0.6" class="pin4 pin11" />
			<ellipse cx="150" cy="180" rx="3" ry="1" fill="white" fill-opacity="0.4" />
		</g>
		<g class="io_com1" x="7" y="7">
			<circle cx="175" cy="175" r="10" fill="#9AFEFF" class="crledbase"/>
			<circle cx="175" cy="175" r="10" fill="#9AFEFF" filter="url(#glow_filter)" visibility="hidden" fill-opacity="0.6" class="pin4 pin7" />
			<ellipse cx="175" cy="180" rx="3" ry="1" fill="white" fill-opacity="0.4" />
		</g>
		<g class="io_com1" x="7" y="8">
			<circle cx="200" cy="175" r="10" fill="#9AFEFF" class="crledbase"/>
			<circle cx="200" cy="175" r="10" fill="#9AFEFF" filter="url(#glow_filter)" visibility="hidden" fill-opacity="0.6" class="pin4 pin6" />
			<ellipse cx="200" cy="180" rx="3" ry="1" fill="white" fill-opacity="0.4" />
		</g>
		<!-- row: 8 -->
		<g class="io_com1" x="8" y="1">
			<circle cx="25" cy="200" r="10" fill="#9AFEFF" class="crledbase"/>
			<circle cx="25" cy="200" r="10" fill="#9AFEFF" filter="url(#glow_filter)" visibility="hidden" fill-opacity="0.6" class="pin14 pin9" />
			<ellipse cx="25" cy="205" rx="3" ry="1" fill="white" fill-opacity="0.4" />
		</g>
		<g class="io_com1" x="8" y="2">
			<circle cx="50" cy="200" r="10" fill="#9AFEFF" class="crledbase"/>
			<circle cx="50" cy="200" r="10" fill="#9AFEFF" filter="url(#glow_filter)" visibility="hidden" fill-opacity="0.6" class="pin14 pin3" />
			<ellipse cx="50" cy="205" rx="3" ry="1" fill="white" fill-opacity="0.4" />
		</g>
		<g class="io_com1" x="8" y="3">
			<circle cx="75" cy="200" r="10" fill="#9AFEFF" class="crledbase"/>
			<circle cx="75" cy="200" r="10" fill="#9AFEFF" filter="url(#glow_filter)" visibility="hidden" fill-opacity="0.6" class="pin14 pin2" />
			<ellipse cx="75" cy="205" rx="3" ry="1" fill="white" fill-opacity="0.4" />
		</g>
		<g class="io_com1" x="8" y="4">
			<circle cx="100" cy="200" r="10" fill="#9AFEFF" class="crledbase"/>
			<circle cx="100" cy="200" r="10" fill="#9AFEFF" filter="url(#glow_filter)" visibility="hidden" fill-opacity="0.6" class="pin14 pin12" />
			<ellipse cx="100" cy="205" rx="3" ry="1" fill="white" fill-opacity="0.4" />
		</g>
		<g class="io_com1" x="8" y="5">
			<circle cx="125" cy="200" r="10" fill="#9AFEFF" class="crledbase"/>
			<circle cx="125" cy="200" r="10" fill="#9AFEFF" filter="url(#glow_filter)" visibility="hidden" fill-opacity="0.6" class="pin14 pin15" />
			<ellipse cx="125" cy="205" rx="3" ry="1" fill="white" fill-opacity="0.4" />
		</g>
		<g class="io_com1" x="8" y="6">
			<circle cx="150" cy="200" r="10" fill="#9AFEFF" class="crledbase"/>
			<circle cx="150" cy="200" r="10" fill="#9AFEFF" filter="url(#glow_filter)" visibility="hidden" fill-opacity="0.6" class="pin14 pin11" />
			<ellipse cx="150" cy="205" rx="3" ry="1" fill="white" fill-opacity="0.4" />
		</g>
		<g class="io_com1" x="8" y="7">
			<circle cx="175" cy="200" r="10" fill="#9AFEFF" class="crledbase"/>
			<circle cx="175" cy="200" r="10" fill="#9AFEFF" filter="url(#glow_filter)" visibility="hidden" fill-opacity="0.6" class="pin14 pin7" />
			<ellipse cx="175" cy="205" rx="3" ry="1" fill="white" fill-opacity="0.4" />
		</g>
		<g class="io_com1" x="8" y="8">
			<circle cx="200" cy="200" r="10" fill="#9AFEFF" class="crledbase"/>
			<circle cx="200" cy="200" r="10" fill="#9AFEFF" filter="url(#glow_filter)" visibility="hidden" fill-opacity="0.6" class="pin14 pin6" />
			<ellipse cx="200" cy="205" rx="3" ry="1" fill="white" fill-opacity="0.4" />
		</g>
	</g>
</svg>
